HIERARCHY
ROOT Hips
{
	OFFSET 0.000000 0.000000 0.000000
	CHANNELS 6 Xposition Yposition Zposition Zrotation Yrotation Xrotation 
	JOINT LHipJoint
	{
		OFFSET 0.000000 0.000000 0.000000
		CHANNELS 3 Zrotation Yrotation Xrotation
		JOINT LeftUpLeg
		{
			OFFSET 1.363060 -1.794630 0.839290
			CHANNELS 3 Zrotation Yrotation Xrotation
			JOINT LeftLeg
			{
				OFFSET 2.448110 -6.726130 0.000000
				CHANNELS 3 Zrotation Yrotation Xrotation
				JOINT LeftFoot
				{
					OFFSET 2.562200 -7.039590 0.000000
					CHANNELS 3 Zrotation Yrotation Xrotation
					JOINT LeftToeBase
					{
						OFFSET 0.157640 -0.433110 2.322550
						CHANNELS 3 Zrotation Yrotation Xrotation
						End Site
						{
							OFFSET 0.000000 0.000000 0.000000
						}
					}
				}
			}
		}
	}
	JOINT RHipJoint
	{
		OFFSET 0.000000 0.000000 0.000000
		CHANNELS 3 Zrotation Yrotation Xrotation
		JOINT RightUpLeg
		{
			OFFSET -1.305520 -1.794630 0.839290
			CHANNELS 3 Zrotation Yrotation Xrotation
			JOINT RightLeg
			{
				OFFSET -2.542530 -6.985550 0.000000
				CHANNELS 3 Zrotation Yrotation Xrotation
				JOINT RightFoot
				{
					OFFSET -2.568260 -7.056230 0.000000
					CHANNELS 3 Zrotation Yrotation Xrotation
					JOINT RightToeBase
					{
						OFFSET -0.164730 -0.452590 2.363150
						CHANNELS 3 Zrotation Yrotation Xrotation
						End Site
						{
							OFFSET 0.000000 0.000000 0.000000
						}
					}
				}
			}
		}
	}
	JOINT LowerBack
	{
		OFFSET 0.000000 0.000000 0.000000
		CHANNELS 3 Zrotation Yrotation Xrotation
		JOINT Spine
		{
			OFFSET 0.028270 2.035590 -0.193380
			CHANNELS 3 Zrotation Yrotation Xrotation
			JOINT Spine1
			{
				OFFSET 0.056720 2.048850 -0.042750
				CHANNELS 3 Zrotation Yrotation Xrotation
				JOINT Neck
				{
					OFFSET 0.000000 0.000000 0.000000
					CHANNELS 3 Zrotation Yrotation Xrotation
					JOINT Neck1
					{
						OFFSET -0.054170 1.746240 0.172020
						CHANNELS 3 Zrotation Yrotation Xrotation
						JOINT Head
						{
							OFFSET 0.104070 1.761360 -0.123970
							CHANNELS 3 Zrotation Yrotation Xrotation
							End Site
							{
								OFFSET 0.000000 0.000000 0.000000
							}
						}
					}
				}
				JOINT LeftShoulder
				{
					OFFSET 0.000000 0.000000 0.000000
					CHANNELS 3 Zrotation Yrotation Xrotation
					JOINT LeftArm
					{
						OFFSET 3.362410 1.200890 -0.311210
						CHANNELS 3 Zrotation Yrotation Xrotation
						JOINT LeftForeArm
						{
							OFFSET 4.983000 -0.000000 -0.000000
							CHANNELS 3 Zrotation Yrotation Xrotation
							JOINT LeftHand
							{
								OFFSET 3.483560 -0.000000 -0.000000
								CHANNELS 3 Zrotation Yrotation Xrotation
								JOINT LeftFingerBase
								{
									OFFSET 0.000000 0.000000 0.000000
									CHANNELS 3 Zrotation Yrotation Xrotation
									JOINT LeftHandIndex1
									{
										OFFSET 0.715260 -0.000000 -0.000000
										CHANNELS 3 Zrotation Yrotation Xrotation
										End Site
										{
											OFFSET 0.000000 0.000000 0.000000
										}
									}
								}
								JOINT LThumb
								{
									OFFSET 0.000000 0.000000 0.000000
									CHANNELS 3 Zrotation Yrotation Xrotation
									End Site
									{
										OFFSET 0.000000 0.000000 0.000000
									}
								}
							}
						}
					}
				}
				JOINT RightShoulder
				{
					OFFSET 0.000000 0.000000 0.000000
					CHANNELS 3 Zrotation Yrotation Xrotation
					JOINT RightArm
					{
						OFFSET -3.136600 1.374050 -0.404650
						CHANNELS 3 Zrotation Yrotation Xrotation
						JOINT RightForeArm
						{
							OFFSET -5.241900 -0.000000 -0.000000
							CHANNELS 3 Zrotation Yrotation Xrotation
							JOINT RightHand
							{
								OFFSET -3.444170 -0.000000 -0.000000
								CHANNELS 3 Zrotation Yrotation Xrotation
								JOINT RightFingerBase
								{
									OFFSET 0.000000 0.000000 0.000000
									CHANNELS 3 Zrotation Yrotation Xrotation
									JOINT RightHandIndex1
									{
										OFFSET -0.622530 -0.000000 -0.000000
										CHANNELS 3 Zrotation Yrotation Xrotation
										End Site
										{
											OFFSET 0.000000 0.000000 0.000000
										}
									}
								}
								JOINT RThumb
								{
									OFFSET 0.000000 0.000000 0.000000
									CHANNELS 3 Zrotation Yrotation Xrotation
									End Site
									{
										OFFSET 0.000000 0.000000 0.000000
									}
								}
							}
						}
					}
				}
			}
		}
	}
}
MOTION
Frames: 10
Frame Time: 0.008333
-2.971362 17.861137 0.135566 53.354194 -87.163583 -52.877259 -4.858398 -4.332265 -0.944526 -6.795595 0.315633 -9.390069 1.346764 11.717085 28.454816 -8.357778 22.054899 -3.649730 3.372500 -11.274900 -33.212600 3.734017 4.319373 -1.827625 4.439893 5.834627 -10.115755 -3.323111 -14.405866 39.079551 1.894783 -9.731195 -15.229673 -0.076400 -1.783000 4.906300 1.895435 2.436522 -6.269000 -3.325256 3.355842 1.506680 -7.399412 1.825060 10.937620 3.609254 8.052231 -7.463790 -8.525496 -56.128827 18.515577 -175.190000 -38.450200 29.269700 -8.956523 -7.807612 1.905788 -59.985908 -10.598766 41.172348 22.996995 -33.132746 -9.157782 0.840813 1.304083 1.299134 33.742709 -27.510472 -17.648200 -7.125000 0.000000 0.000000 1.192300 -3.871800 -1.270400 10.558216 7.843549 1.430903 74.252696 7.196790 26.584744 -24.464194 35.565022 -9.938902 1.967742 0.001284 4.847839 -26.855171 -33.288012 16.606100 7.125000 0.000000 0.000000 4.559700 -66.301500 -2.344600 
-2.969621 17.840682 0.138178 53.081983 -87.082173 -52.653825 -4.828836 -4.350206 -0.974617 -6.896122 0.092517 -9.475500 1.418426 11.856046 28.895436 -8.297546 21.913854 -3.884754 3.441600 -11.377700 -33.564600 3.738669 4.308478 -1.802591 4.341095 5.383088 -10.205148 -3.274178 -14.327558 38.840654 2.097155 -10.216616 -14.926542 -0.024800 -1.017400 2.796800 2.130038 2.591524 -6.052061 -3.524049 3.550970 1.445565 -7.869658 1.952029 10.754177 3.810897 8.292738 -7.074322 -7.730475 -55.525603 17.890839 -175.857000 -37.189800 29.132000 -8.984553 -7.823433 1.928265 -59.521398 -10.501197 41.718636 23.062095 -33.183487 -9.169175 0.841576 1.295833 0.966374 33.469434 -27.532308 -17.470900 -7.125000 0.000000 0.000000 1.031200 -3.791500 -1.097300 10.516019 7.839608 1.406701 74.853940 6.966394 26.062523 -24.507487 35.617210 -9.963224 1.946731 -0.048279 5.113825 -26.956951 -32.991713 16.519400 7.125000 0.000000 0.000000 4.226600 -65.981600 -2.142000 
-2.968533 17.821968 0.137416 52.542373 -87.161859 -52.107739 -4.801485 -4.369563 -1.008332 -6.807905 -0.010716 -9.650150 1.504625 11.991190 29.365247 -8.250310 21.785585 -4.181767 3.513600 -11.483400 -33.928200 3.745537 4.304067 -1.787467 4.437492 5.192106 -10.281920 -3.206967 -14.257968 38.574549 2.364911 -10.886746 -14.625245 -0.002600 -0.329500 0.905400 2.191431 2.595626 -6.008734 -3.503356 3.547883 1.429678 -7.878372 1.953184 10.688486 3.647911 8.691692 -6.761379 -6.900188 -54.465934 17.128135 -176.519000 -35.778100 28.949800 -8.981623 -7.834471 1.942219 -59.553051 -10.481100 41.690421 23.034726 -33.161489 -9.154357 0.840836 1.296375 1.027284 33.471297 -27.489276 -17.451800 -7.125000 0.000000 0.000000 1.042200 -3.746500 -1.108200 10.519251 7.828921 1.413559 74.865197 6.939620 26.138776 -24.481675 35.594008 -9.940060 1.942790 -0.063033 5.022695 -27.189960 -32.731214 16.547700 7.125000 0.000000 0.000000 3.745800 -65.758500 -1.878700 
-2.969730 17.801296 0.137198 53.029391 -87.184242 -52.588283 -4.772710 -4.394897 -1.040921 -6.802815 -0.019109 -9.848398 1.587523 12.119637 29.806094 -8.191508 21.644425 -4.404290 3.459000 -11.403500 -33.652900 3.748930 4.295572 -1.775884 4.451797 4.937758 -10.385204 -3.149388 -14.187919 38.318735 2.651919 -11.604687 -14.270973 -0.008300 0.586800 -1.612500 2.147457 2.586810 -6.033863 -3.472653 3.538457 1.445664 -7.801213 1.942878 10.701915 3.423057 9.121981 -6.484500 -6.005657 -53.091207 16.268510 -177.165000 -34.162300 28.647800 -8.975986 -7.844038 1.956848 -59.659012 -10.528066 41.579506 23.007546 -33.142229 -9.151803 0.845927 1.297778 1.086594 33.547269 -27.648146 -17.582600 -7.125000 0.000000 0.000000 1.049400 -3.948400 -1.119300 10.531164 7.816371 1.429872 74.768642 6.979092 26.205612 -24.450459 35.563242 -9.923213 1.947256 -0.051057 4.958339 -27.103596 -32.814443 16.534800 7.125000 0.000000 0.000000 3.913600 -65.831700 -1.969600 
-2.970600 17.782800 0.137307 53.313338 -87.184623 -52.871771 -4.747242 -4.416588 -1.070016 -6.817002 -0.080018 -10.001929 1.661443 12.238161 30.209301 -8.132907 21.505706 -4.626594 3.456500 -11.399700 -33.640000 3.752478 4.286078 -1.762870 4.446842 4.690143 -10.464893 -3.098956 -14.122231 38.082906 2.909600 -12.255582 -13.966951 -0.049300 1.432200 -3.939000 2.132358 2.589537 -6.026183 -3.471286 3.543180 1.446476 -7.792025 1.943523 10.678511 3.262105 9.493808 -6.204875 -5.293533 -51.893361 15.602006 -177.691000 -32.682400 28.349900 -8.976332 -7.853843 1.971615 -59.681566 -10.541889 41.554109 22.986043 -33.125349 -9.144265 0.848197 1.298195 1.078114 33.546914 -27.726284 -17.621700 -7.125000 0.000000 0.000000 1.031200 -4.034600 -1.101400 10.535098 7.806134 1.439177 74.764182 6.967860 26.226197 -24.424471 35.539790 -9.905778 1.946706 -0.053197 4.949775 -27.107576 -32.759267 16.512700 7.125000 0.000000 0.000000 3.873000 -65.773800 -1.944000 
-2.972123 17.767459 0.137307 53.813041 -87.172899 -53.364319 -4.726331 -4.436661 -1.094486 -6.846479 -0.120892 -10.135519 1.723046 12.336827 30.545527 -8.079131 21.381007 -4.812737 3.447700 -11.386700 -33.595300 3.755162 4.276344 -1.752659 4.425958 4.497004 -10.527498 -3.058129 -14.066887 37.883847 3.130540 -12.818074 -13.711323 -0.113000 2.167400 -5.968500 2.071527 2.572717 -6.048083 -3.455263 3.525828 1.452761 -7.731650 1.928955 10.675604 3.087356 9.819267 -5.979652 -4.741678 -50.817606 15.074826 -178.098000 -31.409000 28.071600 -8.975098 -7.861815 1.983538 -59.743575 -10.561989 41.471764 22.956853 -33.102033 -9.134539 0.849965 1.299447 1.088907 33.562855 -27.796303 -17.668300 -7.125000 0.000000 0.000000 1.024400 -4.118400 -1.095500 10.542898 7.796702 1.449983 74.698441 6.974180 26.304838 -24.390427 35.508435 -9.883566 1.948284 -0.050536 4.930186 -27.090643 -32.735549 16.493700 7.125000 0.000000 0.000000 3.880200 -65.747600 -1.945200 
-2.974190 17.756143 0.137090 54.364020 -87.155536 -53.904636 -4.710684 -4.452592 -1.112669 -6.881857 -0.151025 -10.236882 1.768905 12.410533 30.796582 -8.034787 21.279752 -4.951523 3.441100 -11.376900 -33.561900 3.758043 4.267932 -1.744644 4.397362 4.372574 -10.565370 -3.027811 -14.024837 37.733269 3.289660 -13.225309 -13.532456 -0.175600 2.699100 -7.442000 2.013883 2.561298 -6.073437 -3.449689 3.516204 1.454420 -7.689900 1.919006 10.673471 2.965268 10.052342 -5.816672 -4.369482 -50.035723 14.720783 -178.373000 -30.480400 27.859300 -8.975543 -7.867871 1.992446 -59.776977 -10.574430 41.412581 22.931696 -33.081542 -9.125293 0.850858 1.300493 1.093830 33.571608 -27.842422 -17.698100 -7.125000 0.000000 0.000000 1.019000 -4.173200 -1.090600 10.547930 7.789907 1.456925 74.657814 6.969560 26.364116 -24.359585 35.481940 -9.864526 1.949573 -0.048101 4.922625 -27.068005 -32.732923 16.480000 7.125000 0.000000 0.000000 3.908500 -65.741800 -1.958900 
-2.976258 17.749289 0.136437 54.790422 -87.148103 -54.318146 -4.699959 -4.462925 -1.124384 -6.903266 -0.172945 -10.304725 1.799332 12.459082 30.963425 -8.001026 21.202946 -5.044449 3.440400 -11.375900 -33.558500 3.761966 4.262513 -1.738767 4.381079 4.327019 -10.577360 -3.006678 -13.997262 37.633102 3.382588 -13.465120 -13.440146 -0.216700 2.996600 -8.269400 1.991352 2.566508 -6.087860 -3.461302 3.526759 1.448705 -7.696215 1.922675 10.665025 2.919337 10.180022 -5.718752 -4.158669 -49.608723 14.528071 -178.533000 -29.941200 27.736900 -8.978402 -7.871925 1.998340 -59.756662 -10.577770 41.410301 22.917573 -33.069224 -9.118696 0.850835 1.300928 1.090120 33.568436 -27.855001 -17.702700 -7.125000 0.000000 0.000000 1.014500 -4.186500 -1.086000 10.547943 7.786431 1.458528 74.674923 6.951829 26.375913 -24.334154 35.462731 -9.850380 1.949748 -0.047992 4.922568 -27.060747 -32.741968 16.479400 7.125000 0.000000 0.000000 3.923500 -65.749000 -1.967100 
-2.978216 17.746025 0.135566 55.043992 -87.159661 -54.560013 -4.692758 -4.467944 -1.130700 -6.900802 -0.183651 -10.344820 1.818002 12.487081 31.063818 -7.975622 21.145163 -5.100258 3.441600 -11.377700 -33.564400 3.766924 4.260315 -1.734738 4.388226 4.345569 -10.568307 -2.991891 -13.982063 37.573750 3.425570 -13.578470 -13.414579 -0.233400 3.109400 -8.583600 2.011172 2.590221 -6.085225 -3.486303 3.558547 1.437572 -7.747788 1.940827 10.649838 2.940463 10.216964 -5.676928 -4.070354 -49.489477 14.459177 -178.606000 -29.735300 27.696200 -8.982922 -7.874096 2.001663 -59.687718 -10.571915 41.470903 22.922289 -33.071992 -9.118846 0.849676 1.300654 1.076385 33.563855 -27.833058 -17.688500 -7.125000 0.000000 0.000000 1.017100 -4.160200 -1.088400 10.543573 7.785795 1.455734 74.744593 6.927466 26.340407 -24.313434 35.449448 -9.840633 1.948810 -0.050385 4.920408 -27.077023 -32.752313 16.492400 7.125000 0.000000 0.000000 3.907600 -65.761000 -1.960200 
-2.979957 17.745481 0.134587 55.078714 -87.190569 -54.587358 -4.687674 -4.468645 -1.133221 -6.874079 -0.178623 -10.366378 1.829544 12.501344 31.119356 -7.960846 21.110980 -5.126419 3.445000 -11.382800 -33.582000 3.772519 4.260692 -1.731531 4.420110 4.406148 -10.541230 -2.981316 -13.975679 37.542605 3.428758 -13.590007 -13.436333 -0.228900 3.079300 -8.499600 2.071027 2.627410 -6.061397 -3.518289 3.604716 1.421711 -7.833586 1.969428 10.624245 3.011550 10.184197 -5.680657 -4.070321 -49.595164 14.477097 -178.610000 -29.779900 27.714100 -8.987923 -7.874573 2.002828 -59.589017 -10.557389 41.583713 22.944631 -33.089602 -9.125829 0.847616 1.299805 1.048435 33.563366 -27.791644 -17.666700 -7.125000 0.000000 0.000000 1.026600 -4.113000 -1.097800 10.535849 7.787662 1.449560 74.851744 6.893430 26.267300 -24.301184 35.444857 -9.836844 1.946925 -0.054365 4.914491 -27.103261 -32.762955 16.510600 7.125000 0.000000 0.000000 3.878600 -65.773800 -1.946800 
